# xmcd
#
# Track frame offsets:
#	150
#	7723
#	16535
#	23376
#	31562
#	38184
#	47599
#	59323
#	72350
#	84827
#	98982
#	105961
#	119167
#	124340
#	130779
#	138688
#	144683
#	150794
#
# Disc length: 2192 seconds
#
# Revision: 0
# Processed by: cddbd v1.5.1PL0 Copyright (c) Steve Scherf et al.
# Submitted via: dBpowerAMP V4.0
#
DISCID=d4088e12
DTITLE=Mr. Plow - Mad Plow Disease
DYEAR=2005
DGENRE=AlternRock
TTITLE0=Crackheaded Momma
TTITLE1=Are You Really A Guy?
TTITLE2=D.O.A.
TTITLE3=Brian's Song
TTITLE4=Officer BJ
TTITLE5=I Hate You
TTITLE6=Meat Truck Carnival
TTITLE7=Bitch Slap Me Face
TTITLE8=Morning Boner
TTITLE9=Me-Fist-O
TTITLE10=(Just Because You Want To Fuck Me Doesn't Mean I Want To) Fuck You
TTITLE11=I Wanna Be
TTITLE12=Piggy
TTITLE13=Me Boy's Got Rickets
TTITLE14=Drunk And Passed Out
TTITLE15=God Complex
TTITLE16=That's OK
TTITLE17=I Wanna Fugly
EXTD=
EXTT0=
EXTT1=
EXTT2=
EXTT3=
EXTT4=
EXTT5=
EXTT6=
EXTT7=
EXTT8=
EXTT9=
EXTT10=
EXTT11=
EXTT12=
EXTT13=
EXTT14=
EXTT15=
EXTT16=
EXTT17=
PLAYORDER=
